REM DIRINDEX 1\4,1\2\5,1\2\6,1\3\7,1\3\8
REM DIRNAME cjc124,folder01,folder02,folder03,folder04,folder05,folder06,folder07
TITLE ""
FILE "075_Day38_Check2_Phrases.mp3" MP3
  TRACK 01 AUDIO
    TITLE "0:"
    INDEX 01 00:00:00
  TRACK 02 AUDIO
    TITLE "4:cjc124_2445"
    INDEX 01 00:00:33
  TRACK 03 AUDIO
    TITLE "0:"
    INDEX 01 00:01:58
  TRACK 04 AUDIO
    TITLE "5:cjc124_2446"
    INDEX 01 00:02:20
  TRACK 05 AUDIO
    TITLE "0:"
    INDEX 01 00:04:62
  TRACK 06 AUDIO
    TITLE "6:cjc124_2447"
    INDEX 01 00:05:05
  TRACK 07 AUDIO
    TITLE "0:"
    INDEX 01 00:07:23
  TRACK 08 AUDIO
    TITLE "5:cjc124_2448"
    INDEX 01 00:07:70
  TRACK 09 AUDIO
    TITLE "0:"
    INDEX 01 00:09:38
  TRACK 10 AUDIO
    TITLE "6:cjc124_2449"
    INDEX 01 00:09:55
  TRACK 11 AUDIO
    TITLE "0:"
    INDEX 01 00:11:23
  TRACK 12 AUDIO
    TITLE "5:cjc124_2450"
    INDEX 01 00:11:60
  TRACK 13 AUDIO
    TITLE "0:"
    INDEX 01 00:13:67
  TRACK 14 AUDIO
    TITLE "6:cjc124_2451"
    INDEX 01 00:14:09
  TRACK 15 AUDIO
    TITLE "0:"
    INDEX 01 00:15:74
  TRACK 16 AUDIO
    TITLE "5:cjc124_2452"
    INDEX 01 00:16:38
  TRACK 17 AUDIO
    TITLE "0:"
    INDEX 01 00:18:37
  TRACK 18 AUDIO
    TITLE "6:cjc124_2453"
    INDEX 01 00:18:58
  TRACK 19 AUDIO
    TITLE "0:"
    INDEX 01 00:21:23
  TRACK 20 AUDIO
    TITLE "5:cjc124_2454"
    INDEX 01 00:21:62
  TRACK 21 AUDIO
    TITLE "0:"
    INDEX 01 00:23:50
  TRACK 22 AUDIO
    TITLE "6:cjc124_2455"
    INDEX 01 00:23:65
  TRACK 23 AUDIO
    TITLE "0:"
    INDEX 01 00:25:58
  TRACK 24 AUDIO
    TITLE "5:cjc124_2456"
    INDEX 01 00:26:30
  TRACK 25 AUDIO
    TITLE "0:"
    INDEX 01 00:27:49
  TRACK 26 AUDIO
    TITLE "6:cjc124_2457"
    INDEX 01 00:28:04
  TRACK 27 AUDIO
    TITLE "0:"
    INDEX 01 00:29:64
  TRACK 28 AUDIO
    TITLE "5:cjc124_2458"
    INDEX 01 00:30:28
  TRACK 29 AUDIO
    TITLE "0:"
    INDEX 01 00:32:25
  TRACK 30 AUDIO
    TITLE "6:cjc124_2459"
    INDEX 01 00:32:41
  TRACK 31 AUDIO
    TITLE "0:"
    INDEX 01 00:34:59
  TRACK 32 AUDIO
    TITLE "5:cjc124_2460"
    INDEX 01 00:35:21
  TRACK 33 AUDIO
    TITLE "0:"
    INDEX 01 00:37:40
  TRACK 34 AUDIO
    TITLE "6:cjc124_2461"
    INDEX 01 00:37:56
  TRACK 35 AUDIO
    TITLE "0:"
    INDEX 01 00:40:19
  TRACK 36 AUDIO
    TITLE "5:cjc124_2462"
    INDEX 01 00:40:58
  TRACK 37 AUDIO
    TITLE "0:"
    INDEX 01 00:42:49
  TRACK 38 AUDIO
    TITLE "6:cjc124_2463"
    INDEX 01 00:43:07
  TRACK 39 AUDIO
    TITLE "0:"
    INDEX 01 00:45:16
  TRACK 40 AUDIO
    TITLE "5:cjc124_2464"
    INDEX 01 00:45:57
  TRACK 41 AUDIO
    TITLE "0:"
    INDEX 01 00:47:38
  TRACK 42 AUDIO
    TITLE "6:cjc124_2465"
    INDEX 01 00:47:58
  TRACK 43 AUDIO
    TITLE "0:"
    INDEX 01 00:49:37
  TRACK 44 AUDIO
    TITLE "5:cjc124_2466"
    INDEX 01 00:50:07
  TRACK 45 AUDIO
    TITLE "0:"
    INDEX 01 00:52:04
  TRACK 46 AUDIO
    TITLE "6:cjc124_2467"
    INDEX 01 00:52:24
  TRACK 47 AUDIO
    TITLE "0:"
    INDEX 01 00:53:64
  TRACK 48 AUDIO
    TITLE "5:cjc124_2468"
    INDEX 01 00:54:29
  TRACK 49 AUDIO
    TITLE "0:"
    INDEX 01 00:56:47
  TRACK 50 AUDIO
    TITLE "6:cjc124_2469"
    INDEX 01 00:57:05
  TRACK 51 AUDIO
    TITLE "0:"
    INDEX 01 00:59:14
  TRACK 52 AUDIO
    TITLE "5:cjc124_2470"
    INDEX 01 00:59:51
  TRACK 53 AUDIO
    TITLE "0:"
    INDEX 01 01:01:23
  TRACK 54 AUDIO
    TITLE "6:cjc124_2471"
    INDEX 01 01:01:38
  TRACK 55 AUDIO
    TITLE "0:"
    INDEX 01 01:03:02
  TRACK 56 AUDIO
    TITLE "5:cjc124_2472"
    INDEX 01 01:03:37
  TRACK 57 AUDIO
    TITLE "0:"
    INDEX 01 01:05:38
  TRACK 58 AUDIO
    TITLE "6:cjc124_2473"
    INDEX 01 01:05:54
  TRACK 59 AUDIO
    TITLE "0:"
    INDEX 01 01:07:55
  TRACK 60 AUDIO
    TITLE "5:cjc124_2474"
    INDEX 01 01:08:13
  TRACK 61 AUDIO
    TITLE "0:"
    INDEX 01 01:10:16
  TRACK 62 AUDIO
    TITLE "6:cjc124_2475"
    INDEX 01 01:10:33
  TRACK 63 AUDIO
    TITLE "0:"
    INDEX 01 01:11:64
  TRACK 64 AUDIO
    TITLE "5:cjc124_2476"
    INDEX 01 01:12:32
  TRACK 65 AUDIO
    TITLE "0:"
    INDEX 01 01:14:29
  TRACK 66 AUDIO
    TITLE "6:cjc124_2477"
    INDEX 01 01:14:57
  TRACK 67 AUDIO
    TITLE "0:"
    INDEX 01 01:16:50
